<svg id="icon-assist" viewBox="0 0 1024 1024" width="100%" height="100%"><path d="M511.833279 0a511.833279 511.833279 0 1 0 512.166721 511.833279A511.833279 511.833279 0 0 0 511.833279 0zM566.851189 880.286552a53.017258 53.017258 0 0 1-51.350049 53.3507h-11.337024a53.017258 53.017258 0 0 1-52.683816-52.683817V843.607945a53.017258 53.017258 0 0 1 52.683816-52.683816h11.337024A53.017258 53.017258 0 0 1 566.851189 843.607945z m170.055356-457.482254c-39.346141 74.357538-119.705633 110.702703-191.729078 148.381635v126.041029a41.680234 41.680234 0 0 1-83.360469 0v-150.715728a41.680234 41.680234 0 0 1 20.673396-36.011722c41.680234-23.007489 86.361446-43.014002 126.041029-69.355911C704.562683 377.456203 694.225985 266.7535 600.195376 205.400195c-100.032563-67.688701-233.409313 43.680886-300.097688 118.371866-35.678281 40.346467-94.364051-19.006187-59.019212-59.019212 104.700749-118.705308 300.097688-237.410615 440.143276-100.032562 72.690329 70.689678 105.367633 164.053403 55.684793 258.084011z"></path></svg>