<svg id="icon-logo" viewBox="0 0 1024 1024" width="100%" height="100%"><path d="M512 32c-265.097 0-480 214.903-480 480s214.903 480 480 480c265.097 0 480-214.903 480-480 0-265.097-214.903-480-480-480zM960.11 512c-0.15 247.407-200.747 447.912-448.176 447.912-247.521 0-448.176-200.655-448.176-448.176 0-247.521 200.655-448.176 448.176-448.176 0.023 0 0.046 0 0.069 0 247.362 0.449 447.731 201.025 447.843 448.428z"></path><path d="M359.057 563.617c-59.927 0.038-108.493 48.626-108.493 108.559 0 59.955 48.604 108.559 108.559 108.559 59.933 0 108.521-48.566 108.559-108.489-0.038-59.98-48.648-108.591-108.621-108.628zM436.121 672.241c0 42.561-34.502 77.063-77.063 77.063s-77.063-34.502-77.063-77.063c0-42.561 34.502-77.063 77.063-77.063 42.546 0.038 77.026 34.518 77.063 77.060z"></path><path d="M368.46 378.389c-3.485-0.395-34.718-3.222-57.074 16.636-14.137 12.624-21.238 31.036-21.107 55.43 2.931 36.584 32.228 65.466 68.732 67.73 43.332 0.673 82.292 18.926 110.151 47.924 23.447 22.819 38.46 55.747 38.46 92.183 0 3.683-0.154 7.331-0.455 10.937l0.032 2.684c3.288 23.54 22.422 68.252 71.343 69.041 53.983 0 72.329-43.792 74.038-67.2 0.391-5.357 0.614-11.606 0.614-17.907 0-72.162-29.229-137.498-76.495-184.813-55.033-57.203-125.192-88.371-208.238-92.645zM579.069 709.26c-30.707-0.526-38.729-32.417-40.241-40.57 0.216-3.126 0.338-6.774 0.338-10.452 0-45.013-18.386-85.732-48.059-115.056-33.522-34.493-80.183-56.034-131.877-56.519-19.077-1.284-35.529-17.463-37.258-37.837-0.1-1.064-0.158-2.284-0.158-3.517 0-10.352 4.069-19.754 10.694-26.693 12.15-10.9 32.271-8.993 33.52-8.861 75.55 3.945 138.871 31.89 188.186 83.112s71.014 109.676 67.134 178.718c-1.536 21.144-19.067 37.718-40.469 37.718-0.637 0-1.269-0.015-1.899-0.044z"></path><path d="M463.737 192.373h-56.548l-3.024 1.315c-1.907 0.855-46.028 20.712-46.488 67.989 0 43.989 44.252 65.227 46.028 66.148l3.024 1.447 54.378 1.315c117.896 6.576 238.028 157.808 233.753 294.050v0.724c0.46 20.121 14.663 58.455 65.030 59.178 49.25-0.46 64.373-35.902 65.753-55.102-3.222-245.26-158.795-433.052-361.907-437.063zM462.488 299.024l-47.803-1.118c-6.576-3.748-25.447-16.504-25.447-35.967 0-21.764 17.753-33.863 25.052-37.94h49.118c185.49 3.55 327.65 177.534 330.74 404.976 0 2.433-2.498 24-33.863 24.329s-33.534-23.145-33.797-28.274c4.405-153.995-128.614-318.378-264.066-326.005z"></path></svg>