<svg id="icon-txt-logo" viewBox="0 0 3455 1024" width="100%" height="100%"><path d="M182.046495 977.655172a34.507837 34.507837 0 0 1-33.304075 36.31348h-2.00627a34.507837 34.507837 0 0 1-32.30094-36.31348V361.128527H43.413266A35.310345 35.310345 0 0 1 10.109191 325.617555v-2.206897a33.905956 33.905956 0 0 1 33.304075-36.514106h70.821317v-240.752351A34.507837 34.507837 0 0 1 146.73615 10.031348h2.00627a34.507837 34.507837 0 0 1 33.304075 36.31348v240.752351h71.824452a34.507837 34.507837 0 0 1 33.304075 36.313479v2.206897A36.112853 36.112853 0 0 1 253.870947 361.128527H182.046495z m713.028213-265.830721a34.708464 34.708464 0 0 1 33.304076 36.31348v2.206897a34.708464 34.708464 0 0 1-33.304076 36.313479H860.767498v109.141066a112.15047 112.15047 0 0 1-9.028213 45.141066 102.520376 102.520376 0 0 1-56.777429 62.194357 88.275862 88.275862 0 0 1-41.529781 8.827586h-88.877743a35.310345 35.310345 0 0 1-33.304075-36.313479v-1.003135a35.912226 35.912226 0 0 1 33.304075-36.31348h89.07837A38.721003 38.721003 0 0 0 782.522984 926.896552a47.749216 47.749216 0 0 0 11.034483-30.896552v-109.341693H342.949317a34.708464 34.708464 0 0 1-33.304076-36.313479v-2.206897a34.708464 34.708464 0 0 1 33.304076-36.31348h450.006269v-5.617554a34.708464 34.708464 0 0 1 33.304075-36.31348h1.003135a35.310345 35.310345 0 0 1 33.504702 36.31348v5.416927z m-88.075235-621.943573a40.125392 40.125392 0 0 0 28.288402-12.037618 44.137931 44.137931 0 0 0 11.034482-25.479624 33.304075 33.304075 0 0 1 33.304076-30.896551h1.003134a27.084639 27.084639 0 0 1 24.275862 12.037617 36.31348 36.31348 0 0 1 9.028214 28.689655A135.824451 135.824451 0 0 1 882.836464 129.203762a102.319749 102.319749 0 0 1-75.636364 35.310345h-161.905956v69.416927h149.667712a109.141066 109.141066 0 0 1 42.532915 8.827587 120.376176 120.376176 0 0 1 56.576803 61.793103 125.793103 125.793103 0 0 1 8.827586 46.344828v263.824451a34.507837 34.507837 0 0 1-33.304075 36.31348h-2.00627a34.507837 34.507837 0 0 1-33.304075-36.31348v-26.482758h-188.990596v23.0721a36.112853 36.112853 0 0 1-33.304075 36.313479h-2.00627a35.310345 35.310345 0 0 1-33.304075-36.313479v-23.0721h-190.394984v26.482758a33.905956 33.905956 0 0 1-32.300941 36.31348h-2.006269a34.507837 34.507837 0 0 1-33.304075-36.31348V350.896552a120.376176 120.376176 0 0 1 32.30094-82.658307 107.53605 107.53605 0 0 1 35.310345-25.479624 100.31348 100.31348 0 0 1 40.125392-8.827587h149.667711V164.514107H350.974395a35.310345 35.310345 0 0 1-33.304075-36.31348v-2.407524a35.310345 35.310345 0 0 1 33.304075-36.313479h225.504702v-40.125392A34.507837 34.507837 0 0 1 609.983799 12.238245h2.00627a35.310345 35.310345 0 0 1 33.304075 36.313479v40.125392z m-283.285266 822.570533a36.714734 36.714734 0 0 1 11.435737 50.557993v1.003135a30.896552 30.896552 0 0 1-45.54232 13.241379L375.250257 902.821317a37.717868 37.717868 0 0 1-11.034483-49.554859v-2.206897a32.902821 32.902821 0 0 1 46.545455-12.037617z m-137.630094-561.755486v23.272727h190.194357V308.965517h-149.467084a41.529781 41.529781 0 0 0-40.125392 41.931035z m0 162.106583h190.194357v-66.206897h-189.99373z m448-162.106583A42.532915 42.532915 0 0 0 822.648376 321.003135a37.918495 37.918495 0 0 0-28.288401-12.037618h-149.065831v65.003135h189.191223z m-189.191223 162.106583h189.191223v-66.206897h-188.789969z"></path><path d="M148.74242 1023.197492h-2.00627a44.539185 44.539185 0 0 1-42.332288-46.344827V371.962382h-60.188088A45.141066 45.141066 0 0 1 0.077843 325.617555v-2.206897a43.937304 43.937304 0 0 1 43.335423-46.545454h60.188088V46.344828A44.539185 44.539185 0 0 1 146.73615 0h2.00627a44.539185 44.539185 0 0 1 43.335423 46.344828V276.865204h61.793104a44.539185 44.539185 0 0 1 43.335423 46.344827v2.206897a46.144201 46.144201 0 0 1-43.335423 46.344827H192.077843v605.893417A44.539185 44.539185 0 0 1 148.74242 1023.197492zM43.413266 296.9279A23.874608 23.874608 0 0 0 20.140539 323.410658v2.206897a25.479624 25.479624 0 0 0 23.272727 26.282132h80.250784v625.755485A24.677116 24.677116 0 0 0 146.73615 1003.134796h2.00627a24.677116 24.677116 0 0 0 23.272727-26.282131V351.899687h81.8558a26.081505 26.081505 0 0 0 23.272727-26.282132v-2.206897a24.677116 24.677116 0 0 0-23.272727-26.282131H172.015147V46.344828A24.677116 24.677116 0 0 0 148.74242 20.062696h-2.00627a24.677116 24.677116 0 0 0-22.470219 26.282132V296.9279z m710.018809 724.865203h-88.877743A45.141066 45.141066 0 0 1 622.021417 975.448276a46.545455 46.545455 0 0 1 43.335423-47.548589h89.07837a28.890282 28.890282 0 0 0 21.467085-8.225706 37.316614 37.316614 0 0 0 8.025078-23.673981v-99.310345H342.949317a44.539185 44.539185 0 0 1-43.335424-46.344827v-2.206897A44.539185 44.539185 0 0 1 342.949317 702.194357H782.522984a44.137931 44.137931 0 0 1 43.134797-41.931034A44.940439 44.940439 0 0 1 870.598219 702.194357h24.476489a44.539185 44.539185 0 0 1 43.335424 46.344828v2.206897a44.539185 44.539185 0 0 1-43.335424 46.344827H870.798846v99.109718a121.981191 121.981191 0 0 1-9.830721 49.153605 112.551724 112.551724 0 0 1-61.793103 67.009404 95.498433 95.498433 0 0 1-45.742947 9.429467z m-89.07837-73.830721A25.880878 25.880878 0 0 0 642.084113 974.244514a25.680251 25.680251 0 0 0 23.272727 27.485894h89.07837a77.84326 77.84326 0 0 0 36.714734-7.623825A93.291536 93.291536 0 0 0 842.711072 937.730408a103.322884 103.322884 0 0 0 8.426332-41.730408v-119.373041h44.338558a24.677116 24.677116 0 0 0 23.272728-26.282131v-2.206897A24.677116 24.677116 0 0 0 895.074708 722.257053H850.73615v-16.050156a25.278997 25.278997 0 0 0-23.272727-26.282132A24.877743 24.877743 0 0 0 802.58568 706.206897v16.050156H342.949317a24.677116 24.677116 0 0 0-23.272728 26.282132v2.206897a24.677116 24.677116 0 0 0 23.272728 26.282131H802.58568v119.172414a57.37931 57.37931 0 0 1-13.241379 37.115987 49.153605 49.153605 0 0 1-36.112853 14.846395z m-159.097178 43.937305a40.125392 40.125392 0 0 1-22.670847-7.222571l-113.153605-72.626959a47.749216 47.749216 0 0 1-15.648903-60.188088v-2.608151l1.605016-2.407523a46.144201 46.144201 0 0 1 28.890282-21.065831 41.128527 41.128527 0 0 1 31.498433 5.818182l113.153605 72.827586a46.946708 46.946708 0 0 1 14.445141 63.197492l-1.605016 1.404389a43.53605 43.53605 0 0 1-27.285266 21.868339 40.125392 40.125392 0 0 1-9.028213 1.003135z m-131.410659-137.028214v1.805643l-1.404388 2.407523a27.68652 27.68652 0 0 0 8.025078 36.31348l113.153605 72.827586a20.062696 20.062696 0 0 0 16.250784 3.210032 23.874608 23.874608 0 0 0 15.047022-12.639499l1.404388-2.206896a26.482759 26.482759 0 0 0-8.025078-35.510972l-113.354232-72.827586a21.266458 21.266458 0 0 0-16.250784-3.210032 25.479624 25.479624 0 0 0-14.445141 9.830721zM869.795712 662.068966h-2.00627a44.539185 44.539185 0 0 1-43.335423-46.344828v-16.451411h-169.128527v13.040753a46.144201 46.144201 0 0 1-43.335423 46.344827h-2.00627a45.141066 45.141066 0 0 1-43.335423-46.344827v-13.040753h-170.332288v16.451411A43.53605 43.53605 0 0 1 353.983799 662.068966h-2.006269a44.539185 44.539185 0 0 1-43.335423-46.344828v-264.827586A131.611285 131.611285 0 0 1 343.751824 260.815047 116.163009 116.163009 0 0 1 381.269066 233.730408a108.739812 108.739812 0 0 1 44.739812-9.830721h140.438871V174.545455H350.974395a45.141066 45.141066 0 0 1-43.335423-46.344828v-2.407524A45.141066 45.141066 0 0 1 350.974395 80.250784h215.473354V48.551724A44.539185 44.539185 0 0 1 609.983799 2.206897h2.00627a44.940439 44.940439 0 0 1 43.335423 46.344827V80.250784h151.874608a29.893417 29.893417 0 0 0 21.467085-9.429467 34.106583 34.106583 0 0 0 8.025078-20.062696 43.134796 43.134796 0 0 1 43.335424-40.125392 37.918495 37.918495 0 0 1 33.504702 16.45141 45.141066 45.141066 0 0 1 10.833856 35.310345 146.257053 146.257053 0 0 1-33.70533 73.028213 112.952978 112.952978 0 0 1-83.460815 39.122258h-151.874608v49.354232h140.438872a120.376176 120.376176 0 0 1 46.344827 9.630094A130.206897 130.206897 0 0 1 902.89916 300.940439a136.626959 136.626959 0 0 1 9.830721 50.15674v263.623824A44.539185 44.539185 0 0 1 869.795712 662.068966z m-234.532916-83.862069h209.253919v36.514106A24.677116 24.677116 0 0 0 867.789442 642.00627h2.00627a24.677116 24.677116 0 0 0 23.272727-26.282132v-264.827586a116.363636 116.363636 0 0 0-8.426332-42.733543 109.943574 109.943574 0 0 0-51.962383-56.576802 99.109718 99.109718 0 0 0-37.918495-7.623825h-160.501568V154.482759h171.937305a91.887147 91.887147 0 0 0 68.413793-32.100314A125.592476 125.592476 0 0 0 904.504176 60.188088a25.880878 25.880878 0 0 0-6.62069-20.062696 18.257053 18.257053 0 0 0-16.852665-8.827586 23.473354 23.473354 0 0 0-24.476489 22.068965A54.369906 54.369906 0 0 1 842.711072 84.062696a49.755486 49.755486 0 0 1-35.510972 16.250784h-171.937304V48.551724a25.278997 25.278997 0 0 0-23.272727-26.282132h-2.00627a24.677116 24.677116 0 0 0-23.272727 26.282132V100.31348H350.974395a25.278997 25.278997 0 0 0-23.272727 26.282131v2.206897a25.278997 25.278997 0 0 0 23.272727 25.680251h235.53605v89.479623h-160.501567a89.680251 89.680251 0 0 0-36.31348 8.025079 97.504702 97.504702 0 0 0-32.100313 23.0721 111.347962 111.347962 0 0 0-29.69279 76.037618v263.623824a24.677116 24.677116 0 0 0 24.075235 27.285267h2.006269a24.075235 24.075235 0 0 0 22.269593-26.282132v-37.517241h210.257053v33.103448a25.278997 25.278997 0 0 0 23.272727 26.282131h2.00627a25.880878 25.880878 0 0 0 23.272727-26.282131z m209.253919-54.971787H635.262796v-86.269593h209.253919z m-189.191223-20.062696h169.128527v-46.144201h-169.128527z m-68.815047 20.062696H376.253392v-86.269593h210.257053z m-190.194357-20.062696h170.131661v-46.144201h-170.131661z m448-118.971787H635.262796V298.934169h160.501568a47.749216 47.749216 0 0 1 35.711598 15.448276 52.965517 52.965517 0 0 1 13.843261 36.514107z m-189.191223-20.062696h169.128527v-13.241379a32.902821 32.902821 0 0 0-8.426332-23.072101 27.887147 27.887147 0 0 0-20.062696-8.827586h-140.438872z m-68.815047 20.062696H376.253392v-33.304075a51.561129 51.561129 0 0 1 50.557994-51.962383h160.501567z m-190.194357-20.062696h170.131661V318.996865h-140.438871a29.893417 29.893417 0 0 0-21.467085 9.429467 29.492163 29.492163 0 0 0-9.028213 22.47022zM1504.780038 264.827586h567.37304a34.30721 34.30721 0 0 1 32.501568 36.112853c0 31.899687-66.808777 89.278997-106.131662 120.376175a1031.824451 1031.824451 0 0 1-126.394984 82.658308L2166.849003 593.655172a37.517241 37.517241 0 0 1 24.275862 36.31348c0 2.206897-1.003135 5.416928-1.003135 7.623824V642.00627a34.708464 34.708464 0 0 1-32.30094 26.482758 25.680251 25.680251 0 0 1-9.028213-1.203762l-373.768025-116.564263A1448.727273 1448.727273 0 0 1 1338.059034 662.068966a35.711599 35.711599 0 0 1-36.313479-34.307211v-1.003134a36.915361 36.915361 0 0 1 31.297806-40.125392 1434.081505 1434.081505 0 0 0 326.620689-71.623825L1424.529254 442.583072a37.517241 37.517241 0 0 1-24.275862-36.31348 30.094044 30.094044 0 0 1 0-8.827586l1.003135-1.203761a32.902821 32.902821 0 0 1 30.29467-27.485894 40.125392 40.125392 0 0 1 11.034483 2.206897l326.62069 101.517241a679.724138 679.724138 0 0 0 204.238244-133.416928H1443.187561a36.112853 36.112853 0 0 1-34.30721-36.313479 38.92163 38.92163 0 0 1 5.015674-17.655173l40.125392-75.034483a33.504702 33.504702 0 0 1 29.291536-17.655172 29.893417 29.893417 0 0 1 16.250784 4.413793l1.003134 1.203762a35.510972 35.510972 0 0 1 16.250784 31.899686 38.92163 38.92163 0 0 1-4.012539 18.658308z m616.927899-61.793103a42.131661 42.131661 0 0 0-40.125392-45.141066h-662.068965a42.131661 42.131661 0 0 0-40.125392 45.141066v25.278997A35.310345 35.310345 0 0 1 1344.27847 264.827586a34.708464 34.708464 0 0 1-33.304075-36.313479v-25.479624a112.952978 112.952978 0 0 1 108.137931-117.968652h296.125392V46.344828A35.310345 35.310345 0 0 1 1748.74242 10.031348h2.00627a34.708464 34.708464 0 0 1 33.304075 36.31348v38.721003h297.329153a114.15674 114.15674 0 0 1 108.137932 117.968652v25.278997a36.112853 36.112853 0 0 1-33.304076 36.313479h-2.006269a35.310345 35.310345 0 0 1-33.304076-36.313479z m-640 810.934169a112.752351 112.752351 0 0 1-107.134796-117.968652v-94.896552A112.752351 112.752351 0 0 1 1481.707937 682.131661h536.075235a114.959248 114.959248 0 0 1 108.940439 118.971787v94.896552a114.15674 114.15674 0 0 1-108.137931 117.968652z m536.075235-73.830721a40.125392 40.125392 0 0 0 40.125392-44.137931v-94.896552a40.125392 40.125392 0 0 0-40.125392-43.134796H1481.707937a40.125392 40.125392 0 0 0-38.520376 43.134796v94.896552a40.125392 40.125392 0 0 0 38.520376 44.137931z"></path><path d="M2017.783172 1023.197492H1481.707937A123.184953 123.184953 0 0 1 1364.341166 896v-94.896552a123.184953 123.184953 0 0 1 117.166144-128h536.075235a125.191223 125.191223 0 0 1 118.169279 128v94.896552a123.586207 123.586207 0 0 1-117.968652 127.197492zM1481.707937 693.166144A103.122257 103.122257 0 0 0 1384.403862 801.103448v94.896552A103.122257 103.122257 0 0 0 1481.707937 1003.134796h536.075235a104.9279 104.9279 0 0 0 98.106583-107.937304v-94.094044a104.9279 104.9279 0 0 0-98.106583-107.937304z m536.075235 257.003135H1481.707937a50.959248 50.959248 0 0 1-48.551724-54.169279v-94.896552a49.755486 49.755486 0 0 1 48.551724-53.166144h536.075235a50.15674 50.15674 0 0 1 50.557994 53.166144v94.896552a50.758621 50.758621 0 0 1-50.557994 54.169279z m-536.075235-181.968652a30.094044 30.094044 0 0 0-28.489028 33.103448v94.896552a30.896552 30.896552 0 0 0 28.489028 34.106583h536.075235a30.695925 30.695925 0 0 0 30.495298-34.106583v-95.097179a30.495298 30.495298 0 0 0-30.495298-33.103448z m676.714734-90.482759a34.909091 34.909091 0 0 1-12.639499-1.805642L1775.626433 561.755486a1455.147335 1455.147335 0 0 1-436.564264 110.344827 45.943574 45.943574 0 0 1-47.347962-43.335423v-2.006269a46.946708 46.946708 0 0 1 40.125392-49.755486 1399.774295 1399.774295 0 0 0 294.92163-61.39185l-204.639499-63.598746a47.548589 47.548589 0 0 1-31.297805-45.943573 40.125392 40.125392 0 0 1 1.404388-11.636364l1.605016-3.210031a42.332288 42.332288 0 0 1 40.125392-32.702195A40.125392 40.125392 0 0 1 1444.59195 361.128527h2.206896l323.009405 100.313479a712.827586 712.827586 0 0 0 180.564263-112.752351H1443.187561a46.144201 46.144201 0 0 1-44.338558-46.344827A48.551724 48.551724 0 0 1 1404.466558 280.877743l40.125392-75.034483a43.736677 43.736677 0 0 1 38.119122-22.871473 40.125392 40.125392 0 0 1 21.667712 6.018809l1.805642 1.605015a45.141066 45.141066 0 0 1 20.062696 40.125392 48.551724 48.551724 0 0 1-5.216301 23.673981v1.605016h550.520376A44.539185 44.539185 0 0 1 2114.685994 300.940439c0 34.708464-60.188088 88.877743-110.144201 128.200627a957.39185 957.39185 0 0 1-107.736677 72.025078l273.253918 83.661442a47.548589 47.548589 0 0 1 31.297806 45.943574 33.905956 33.905956 0 0 1 0 5.617555 17.253918 17.253918 0 0 0 0 2.206896v6.219436a44.940439 44.940439 0 0 1-42.934169 32.902821z m-384-137.830721l377.780564 116.965518a18.257053 18.257053 0 0 0 6.219436 0 24.476489 24.476489 0 0 0 22.269592-18.056427v-1.805642a33.905956 33.905956 0 0 1 0-5.617555 17.253918 17.253918 0 0 0 0-2.206897 27.68652 27.68652 0 0 0-17.053291-26.683385l-316.789969-96.501568 20.062696-11.435736a1006.946708 1006.946708 0 0 0 125.191223-81.8558c63.197492-49.354232 102.319749-92.489028 102.319749-112.351097a24.476489 24.476489 0 0 0-23.272727-25.278997H1486.924238l17.8558-31.498432a29.090909 29.090909 0 0 0 2.808777-13.843261 26.282132 26.282132 0 0 0-11.23511-23.473354l-2.206896-1.805643a20.062696 20.062696 0 0 0-9.830721-2.206896 23.272727 23.272727 0 0 0-20.062696 12.438871l-40.125392 75.034483a29.69279 29.69279 0 0 0-3.811912 12.840126A26.081505 26.081505 0 0 0 1444.59195 328.827586h554.532915l-16.652037 17.053292A691.159875 691.159875 0 0 1 1775.024552 481.504702l-3.410659 1.605016-332.238244-103.122257a22.670846 22.670846 0 0 0-6.420063-1.203762 23.272727 23.272727 0 0 0-20.062696 20.062696l-1.605015 3.611285a31.69906 31.69906 0 0 0 0 4.012539 27.68652 27.68652 0 0 0 17.053291 26.683386l264.225705 82.056426-29.090909 10.031348a1435.887147 1435.887147 0 0 1-329.028213 72.225706 27.084639 27.084639 0 0 0-22.269592 29.69279 25.680251 25.680251 0 0 0 26.282131 25.278996A1433.278997 1433.278997 0 0 0 1771.012013 541.69279z m381.191222-265.028213h-2.006269a45.141066 45.141066 0 0 1-43.335423-46.344827v-25.479624a32.30094 32.30094 0 0 0-29.492163-35.109718h-662.068966a32.30094 32.30094 0 0 0-30.495298 35.109718v25.278997a43.937304 43.937304 0 1 1-87.874608 0v-25.278997a123.586207 123.586207 0 0 1 118.169279-128H1705.406997V46.344828A45.141066 45.141066 0 0 1 1748.74242 0h2.00627a44.539185 44.539185 0 0 1 43.335423 46.344828v28.689655h287.297805a123.586207 123.586207 0 0 1 118.169279 128v25.278997a46.144201 46.144201 0 0 1-43.335423 46.545454zM1418.911699 147.862069h662.068966a51.962382 51.962382 0 0 1 49.554859 55.172414v25.278997a25.278997 25.278997 0 0 0 23.272727 26.282131h2.006269a25.880878 25.880878 0 0 0 23.272728-26.282131v-25.278997a104.9279 104.9279 0 0 0-98.106583-107.937304h-306.959248V46.344828A24.677116 24.677116 0 0 0 1750.74869 20.062696h-2.00627A25.278997 25.278997 0 0 0 1725.469693 46.344828v48.752351H1418.911699a102.319749 102.319749 0 0 0-98.106583 107.937304v25.278997A24.677116 24.677116 0 0 0 1344.27847 254.796238a25.479624 25.479624 0 0 0 24.275862-26.282131v-25.479624a51.962382 51.962382 0 0 1 50.357367-55.172414zM2717.570006 1012.965517a104.9279 104.9279 0 0 1-48.551724-11.034483 134.62069 134.62069 0 0 1-75.83699-126.796238V160.501567A134.62069 134.62069 0 0 1 2668.416401 33.103448a120.376176 120.376176 0 0 1 48.551724-11.034482h601.880878a120.376176 120.376176 0 0 1 48.551724 11.034482 134.821317 134.821317 0 0 1 67.811912 72.827586 140.438871 140.438871 0 0 1 10.633229 54.570533v714.432602a140.438871 140.438871 0 0 1-9.028213 53.968652 134.62069 134.62069 0 0 1-67.811912 72.827587 105.128527 105.128527 0 0 1-48.551724 11.034482z m601.880878-73.830721a54.570533 54.570533 0 0 0 40.125392-18.858934 61.191223 61.191223 0 0 0 17.253918-45.141066V160.501567a60.188088 60.188088 0 0 0-17.253918-45.141065 53.366771 53.366771 0 0 0-40.125392-17.655173h-601.880878a51.360502 51.360502 0 0 0-40.125392 17.655173 60.188088 60.188088 0 0 0-16.45141 45.141065v714.432602a60.188088 60.188088 0 0 0 17.253918 45.141066 52.363636 52.363636 0 0 0 40.125392 18.858934z m-392.626959-451.410658c-8.025078 110.344828-32.30094 209.655172-89.07837 298.934169-13.241379 20.062696-28.288401 40.125392-44.539185 60.188088a32.702194 32.702194 0 0 1-48.551724 0l-2.00627-3.410658a36.915361 36.915361 0 0 1 0-48.551724 451.410658 451.410658 0 0 0 81.8558-135.623825 630.169279 630.169279 0 0 0 34.30721-170.934169h-100.31348a33.304075 33.304075 0 0 1-32.30094-36.31348v-2.206896a32.30094 32.30094 0 0 1 32.30094-35.310345h521.630094a32.30094 32.30094 0 0 1 32.30094 35.310345v2.206896a33.304075 33.304075 0 0 1-32.30094 36.31348h-104.125392V722.257053a61.99373 61.99373 0 0 0 16.250784 44.137931 54.570533 54.570533 0 0 0 42.532915 20.062696h54.570533a34.106583 34.106583 0 0 1 32.300941 35.310345v3.410658a35.109718 35.109718 0 0 1-32.300941 36.31348h-54.570533a106.934169 106.934169 0 0 1-49.554859-12.037618 134.821317 134.821317 0 0 1-67.811912-72.827586 159.297806 159.297806 0 0 1-10.031348-53.968652V487.724138z m-144.652038-205.241379a33.705329 33.705329 0 0 1-33.504702-35.310345v-3.410659a33.705329 33.705329 0 0 1 33.304075-35.310344h474.282132a33.705329 33.705329 0 0 1 34.106583 35.510971v3.410659a33.705329 33.705329 0 0 1-33.304075 35.310345z"></path><path d="M3320.454019 1023.197492h-601.880878a114.15674 114.15674 0 0 1-53.166144-12.037617 144.250784 144.250784 0 0 1-81.253919-135.824452V160.501567a144.451411 144.451411 0 0 1 81.655173-136.025078 130.407524 130.407524 0 0 1 52.76489-12.037618h601.880878a130.206897 130.206897 0 0 1 52.564263 11.836991 144.250784 144.250784 0 0 1 73.028213 78.043887 149.266458 149.266458 0 0 1 9.830721 58.181818v714.432602a149.266458 149.266458 0 0 1-9.830721 57.780565 144.250784 144.250784 0 0 1-72.827586 78.244514 113.755486 113.755486 0 0 1-52.76489 12.238244z m-601.880878-990.695925a110.344828 110.344828 0 0 0-44.539185 10.231975A124.789969 124.789969 0 0 0 2603.212639 160.501567v714.432602a124.789969 124.789969 0 0 0 70.018809 117.768025 94.896552 94.896552 0 0 0 44.338558 10.031348h601.880878a94.695925 94.695925 0 0 0 43.937304-10.031348 124.990596 124.990596 0 0 0 62.996865-67.811912 130.00627 130.00627 0 0 0 8.225706-50.15674V160.501567a130.206897 130.206897 0 0 0-8.426333-50.357366 124.589342 124.589342 0 0 0-62.595611-67.410659 110.344828 110.344828 0 0 0-44.338558-10.031348z m601.880878 916.865204h-601.880878a62.194357 62.194357 0 0 1-46.746081-22.068965 70.821317 70.821317 0 0 1-20.062696-51.962383V160.501567a71.021944 71.021944 0 0 1 20.062696-52.363636 60.188088 60.188088 0 0 1 46.545454-20.062696h601.880878a63.398119 63.398119 0 0 1 47.949843 20.062696 70.821317 70.821317 0 0 1 20.062696 51.962382v714.833856a71.222571 71.222571 0 0 1-20.062696 52.363637 64.401254 64.401254 0 0 1-47.749216 21.667711z m-601.880878-842.633229a41.529781 41.529781 0 0 0-32.100313 14.445141 51.360502 51.360502 0 0 0-15.448276 39.322884v714.432602a51.159875 51.159875 0 0 0 14.244514 38.119123 42.733542 42.733542 0 0 0 32.30094 15.849529h601.880878a44.338558 44.338558 0 0 0 33.103448-15.448276 51.360502 51.360502 0 0 0 14.645768-38.520376V160.501567a51.159875 51.159875 0 0 0-14.244514-38.119122 43.53605 43.53605 0 0 0-33.304075-14.645768z m570.382445 763.987461h-54.570533a116.564263 116.564263 0 0 1-54.169279-13.241379 143.84953 143.84953 0 0 1-72.426332-77.84326 169.931034 169.931034 0 0 1-10.833856-57.981192V497.755486h-160.501567c-9.830721 120.376176-38.520376 213.266458-89.880878 294.319749-12.037618 18.257053-26.884013 38.119122-45.141066 60.188088a43.937304 43.937304 0 0 1-63.799373 0l-3.210031-4.815047a46.144201 46.144201 0 0 1 0-60.188088 441.37931 441.37931 0 0 0 80.250784-132.815047 613.115987 613.115987 0 0 0 34.30721-156.689655h-90.282132a43.134796 43.134796 0 0 1-42.332288-46.344828v-2.206896a42.131661 42.131661 0 0 1 42.332288-45.341693h521.630094a42.131661 42.131661 0 0 1 42.332288 45.341693v2.206896a43.134796 43.134796 0 0 1-42.332288 46.344828h-94.094044V722.257053a51.962382 51.962382 0 0 0 13.642633 37.316615 44.338558 44.338558 0 0 0 35.109718 16.652037h54.570533a43.937304 43.937304 0 0 1 40.9279 44.739812v3.410659a45.141066 45.141066 0 0 1-41.529781 46.344827z m-371.360501-393.028213h199.423197V722.257053a149.065831 149.065831 0 0 0 9.429467 50.557994 124.388715 124.388715 0 0 0 62.595612 67.210031 97.705329 97.705329 0 0 0 45.341692 11.23511h54.570533a25.278997 25.278997 0 0 0 21.467085-27.084639v-3.410659a24.275862 24.275862 0 0 0-22.269593-25.278997h-54.570533a64.200627 64.200627 0 0 1-49.956112-23.0721 71.824451 71.824451 0 0 1-18.858935-50.959248V477.69279h114.15674a23.272727 23.272727 0 0 0 22.269593-26.282132v-2.206896a22.470219 22.470219 0 0 0-22.269593-25.278997h-521.630094a22.470219 22.470219 0 0 0-22.269592 25.278997v2.206896a23.272727 23.272727 0 0 0 22.269592 26.282132H2869.043361v10.633229a638.796238 638.796238 0 0 1-34.909091 173.742947 461.442006 461.442006 0 0 1-83.862069 138.833855 26.683386 26.683386 0 0 0 0 35.510972l3.009404 4.61442a24.877743 24.877743 0 0 0 32.501567-1.605016c17.454545-21.467085 31.899687-40.125392 43.536051-58.382445 50.758621-80.250784 78.445141-173.54232 87.272727-294.119122z m339.059561-185.178683h-474.482759a43.335423 43.335423 0 0 1-43.335423-45.341693v-3.410659a43.335423 43.335423 0 0 1 43.335423-45.341692h474.282132a43.335423 43.335423 0 0 1 43.335423 45.341692v3.410659a43.335423 43.335423 0 0 1-43.134796 45.341693z m-474.482759-73.830721a23.473354 23.473354 0 0 0-23.272727 25.278996v3.410659a23.473354 23.473354 0 0 0 23.272727 25.278997h474.282132a23.473354 23.473354 0 0 0 23.272727-25.278997v-3.410659a23.473354 23.473354 0 0 0-23.272727-25.278996z"></path></svg>