<svg id="icon-home" viewBox="0 0 1140 1024" width="100%" height="100%"><path d="M141.321267 620.886878L622.541694 140.659341h-116.829994l492.804137 479.234647c76.121526 75.128636 192.951519-42.694247 116.829994-117.160956L622.541694 23.829347a84.064641 84.064641 0 0 0-117.160957 0L24.491273 504.056884C-50.968326 579.18552 66.192631 695.022624 141.321267 620.886878z"></path><path d="M1011.754363 713.556561L564.623142 360.087912l-444.81448 364.05947 2.316742 213.140272s25.1532 86.05042 95.317389 86.05042h222.407239a153.566904 153.566904 0 0 1-55.60181-117.49192v-59.904331a154.890756 154.890756 0 0 1 154.559794-154.559793h49.644473a154.890756 154.890756 0 0 1 154.559793 154.559793v58.580478a153.566904 153.566904 0 0 1-56.5947 118.48481h242.26503a94.986425 94.986425 0 0 0 83.071751-90.683905c-0.661926-107.563025 0-218.766645 0-218.766645z"></path></svg>